<?xml version="1.0" encoding="utf-8"?>
<!-- Generator: Adobe Illustrator 28.1.0, SVG Export Plug-In . SVG Version: 6.00 Build 0)  -->
<svg version="1.1"
	 id="Layer_1" text-rendering="geometricPrecision" image-rendering="optimizeQuality" shape-rendering="geometricPrecision"
	 xmlns="http://www.w3.org/2000/svg" xmlns:xlink="http://www.w3.org/1999/xlink" x="0px" y="0px" viewBox="0 0 141.7 141.7"
	 style="enable-background:new 0 0 141.7 141.7;" xml:space="preserve">
<style type="text/css">
	.st0{fill-rule:evenodd;clip-rule:evenodd;fill:#1F1A17;}
	.st1{fill-rule:evenodd;clip-rule:evenodd;fill:url(#SVGID_1_);}
</style>
<path class="st0" d="M74.2,26.6c7.4,0.5,14.2,2.4,20.5,5.7c6.3,3.3,11.6,7.6,16,12.8c3.1,3.6,6,8.1,8.7,13.2
	c2.8,5.2,5,10.7,6.6,16.4c1.9,6.9,3.1,14,3.6,21.1c0.5,7.4,0.7,14.2,0.7,20.5v15.3H43.8c-0.4,0-0.6-1.2-0.6-3.4
	c0-2.3,0.2-4.2,0.5-5.6c0.2-1.1,0.6-2.7,1.3-4.8c0.7-2.1,1.9-4.6,3.5-7.5c0.7-1.5,2.5-3.7,5.3-6.6c2.8-2.9,6-6.2,9.7-10
	c2.1-2.2,3.7-4.9,4.9-8.2c1.2-3.3,1.7-6.2,1.5-8.9c-1.7,1.4-3.6,2.6-5.7,3.5c-9.9,3.6-17.1,8.7-21.6,15.5c-0.3,0.4-1.4,2.3-3.2,5.7
	c-0.9,1.8-1.8,3-2.4,3.6c-0.9,0.9-2.2,1.4-3.9,1.5c-2.6,0.1-4.7-1.1-6.1-3.8c-2,0.6-3.7,0.8-5.3,0.7c-2.6-1-4.5-2-5.7-3.2
	c-2.4-2.4-3.9-4.8-4.7-7.2c-0.7-2.5-1.1-5.1-1.1-7.7c0-3.9,2.4-9.1,7.3-15.6c5.7-7.4,8.8-13.1,9.1-17c0-1.7,0.2-3.6,0.5-5.7
	c0.3-1.5,0.9-2.9,1.8-4.2c0.6-0.9,1-1.6,1.2-1.9c0.2-0.4,0.6-0.9,1.2-1.6c0.4-0.6,0.8-1,1.1-1.3c0.3-0.3,0.6-0.7,1.1-1.2
	c0.5-0.6,1.2-1.3,2-2.1c-2.5-6.8-3.5-14-3-21.1C42,16.7,49.8,22,56.1,29.1c1.6-5.3,4.6-9.6,9.1-12.9C69,18.9,72,22.3,74.2,26.6z"/>
<linearGradient id="SVGID_1_" gradientUnits="userSpaceOnUse" x1="-296.5542" y1="857.7739" x2="-240.1662" y2="857.8969" gradientTransform="matrix(2.8346 0 0 -2.8346 900.811 2510.6931)">
	<stop  offset="0" style="stop-color:#FFFFFF"/>
	<stop  offset="1" style="stop-color:#FFFFFF;stop-opacity:0"/>
</linearGradient>
<path class="st1" d="M44.5,50.4l1.5-0.8c1.4-0.5,1.8-1.6,1.3-3.1c-0.6-1.4-1.6-1.9-3.2-1.4c-5.5,2-9.3,5.7-11.4,11.1
	c-0.3,1.5,0.2,2.6,1.7,3.2c1.5,0.5,2.4,0,3-1.6c0.4-0.8,0.6-1.3,0.8-1.5c0.5,0.4,1.2,0.7,2,0.8c2.9,0.5,4.5-0.8,5-3.8
	C45.3,52.3,45.1,51.3,44.5,50.4z M32.8,97.9c0.2-0.4,0.5-1.1,0.9-1.9c0.8-2,1.2-3.1,1.2-3.5c-0.1-1.3-0.8-2-2-2c-0.9,0-2,1.3-3.3,4
	c-0.2,0.4-0.5,0.7-0.8,1c-1.3,1.3-1.1,2.4,0.5,3.3C30.8,99.7,31.9,99.4,32.8,97.9L32.8,97.9z M74.3,71.8c3.3-4.3,4.9-9.1,4.8-14.4
	c-0.2-1.6-1.1-2.3-2.7-2.3c-2.2,0-3,0.8-2.5,2.4c0.1,2.6-0.1,4.7-0.8,6.4c-1.1,2.7-2.3,4.7-3.6,6c-0.7,1.4-0.3,2.4,1.3,3.1
	C72.3,73.7,73.5,73.3,74.3,71.8z M55.9,37.5c-0.2-1.8-0.2-3.7,0.1-5.5c-2.8,0.5-5.4,1.9-7.9,3.9c-1.5,0.8-1.8,1.9-1.1,3.3
	c0.8,1.4,1.9,1.7,3.3,0.7c1-0.5,1.9-1,2.7-1.4C53.9,38.1,54.8,37.8,55.9,37.5L55.9,37.5z M121.8,126.7c0,0,0-1.3,0.1-3.8
	c0.4-8.8,0.3-17.6,0.2-26.4c-0.1-6.3-0.9-12.6-2.5-18.7c-2.4-9.4-6-18.4-11.5-26.4c-7.5-10.9-19.3-17.1-32-19.8
	c0.4,2.2,0.1,4.4,0.2,6.6c4.5,1.5,8.8,3.4,12.9,5.8c12,7.2,18.2,20.6,20.4,33.8c3.6,17.4,1.3,32.8,2.3,49H121.8z M26.8,85.4
	c1.3-1,1.5-2.1,0.4-3.4c-1.1-1.1-2.4-1.2-3.7-0.3c-2.9,1.9-4.4,4.3-4.6,7.4c0,1.5,1,2.3,2.8,2.2c1.7-0.1,2.5-1,2.4-2.6
	C24.5,87.2,25.3,86.1,26.8,85.4z"/>
</svg>
