<?xml version="1.0" encoding="utf-8"?>
<!-- Generator: Adobe Illustrator 28.1.0, SVG Export Plug-In . SVG Version: 6.00 Build 0)  -->
<svg version="1.0" id="Layer_2" xmlns="http://www.w3.org/2000/svg" xmlns:xlink="http://www.w3.org/1999/xlink" x="0px" y="0px"
	 viewBox="0 0 120 120" enable-background="new 0 0 120 120" xml:space="preserve">
<circle cx="60" cy="60" r="10"/>
<g>
	<g>
		<g>
			<line x1="47.673" y1="72.327" x2="19.687" y2="100.313"/>
			<g>
				<path d="M49.67,74.324c-1.466,1.963-3.266,3.593-5.099,5.19c-1.809,1.621-3.657,3.202-5.512,4.777l-11.23,9.347
					c-0.442,0.368-1.099,0.308-1.467-0.134c-0.327-0.392-0.316-0.954,0-1.333l9.347-11.23c1.575-1.854,3.156-3.703,4.777-5.512
					c1.597-1.833,3.226-3.633,5.19-5.099c1.263-0.943,3.051-0.684,3.994,0.578C50.444,71.945,50.405,73.338,49.67,74.324z"/>
				<g>
					<path d="M27.932,92.068c4.348,0,9.684,3.263,12.752,6.161c-6.986-1.024-14.353-0.643-20.998,2.085
						c2.811-6.562,2.81-13.969,2.085-20.998C24.71,82.765,27.806,87.423,27.932,92.068z"/>
				</g>
			</g>
		</g>
	</g>
</g>
<g>
	<g>
		<g>
			<line x1="72.327" y1="47.673" x2="100.313" y2="19.687"/>
			<g>
				<path d="M70.33,45.676c1.466-1.963,3.266-3.593,5.099-5.19c1.809-1.621,3.657-3.202,5.512-4.777l11.23-9.347
					c0.442-0.368,1.099-0.308,1.467,0.134c0.327,0.392,0.316,0.954,0,1.333l-9.347,11.23c-1.575,1.854-3.156,3.703-4.777,5.512
					c-1.597,1.833-3.226,3.633-5.19,5.099c-1.263,0.943-3.051,0.684-3.994-0.578C69.556,48.055,69.595,46.662,70.33,45.676z"/>
				<g>
					<path d="M92.068,27.932c-4.348,0-9.684-3.263-12.752-6.161c6.986,1.024,14.353,0.643,20.998-2.085
						c-2.811,6.562-2.81,13.969-2.085,20.998C95.29,37.235,92.194,32.577,92.068,27.932z"/>
				</g>
			</g>
		</g>
	</g>
</g>
<g>
	<g>
		<g>
			<line x1="72.327" y1="72.327" x2="100.313" y2="100.313"/>
			<g>
				<path d="M74.324,70.33c1.963,1.466,3.593,3.266,5.19,5.099c1.621,1.809,3.202,3.657,4.777,5.512l9.347,11.23
					c0.368,0.442,0.308,1.099-0.134,1.467c-0.392,0.327-0.954,0.316-1.333,0l-11.23-9.347c-1.854-1.575-3.703-3.156-5.512-4.777
					c-1.833-1.597-3.633-3.226-5.099-5.19c-0.943-1.263-0.684-3.051,0.578-3.994C71.945,69.556,73.338,69.595,74.324,70.33z"/>
				<g>
					<path d="M92.068,92.068c0-4.348,3.263-9.684,6.161-12.752c-1.024,6.986-0.643,14.353,2.085,20.998
						c-6.562-2.811-13.969-2.81-20.998-2.085C82.765,95.29,87.423,92.194,92.068,92.068z"/>
				</g>
			</g>
		</g>
	</g>
</g>
<g>
	<g>
		<g>
			<line x1="47.673" y1="47.673" x2="19.687" y2="19.687"/>
			<g>
				<path d="M45.676,49.67c-1.963-1.466-3.593-3.266-5.19-5.099c-1.621-1.809-3.202-3.657-4.777-5.512l-9.347-11.23
					c-0.368-0.442-0.308-1.099,0.134-1.467c0.392-0.327,0.954-0.316,1.333,0l11.23,9.347c1.854,1.575,3.703,3.156,5.512,4.777
					c1.833,1.597,3.633,3.226,5.099,5.19c0.943,1.263,0.684,3.051-0.578,3.994C48.055,50.444,46.662,50.405,45.676,49.67z"/>
				<g>
					<path d="M27.932,27.932c0,4.348-3.263,9.684-6.161,12.752c1.024-6.986,0.643-14.352-2.085-20.998
						c6.562,2.811,13.969,2.81,20.998,2.085C37.235,24.71,32.577,27.806,27.932,27.932z"/>
				</g>
			</g>
		</g>
	</g>
</g>
<g>
</g>
<g>
</g>
<g>
</g>
<g>
</g>
<g>
</g>
<g>
</g>
<g>
</g>
<g>
</g>
<g>
</g>
<g>
</g>
<g>
</g>
<g>
</g>
<g>
</g>
</svg>
