<?xml version="1.0" encoding="UTF-8"?><svg xmlns="http://www.w3.org/2000/svg" viewBox="0 0 120 120"><defs><style>.s{stroke-width:0px;}</style></defs><g id="a"><g id="b"><g id="c"><path class="s" d="M62.82,76.43c.39,1.82.2,3.63.03,5.45-.15,1.82-.36,3.63-.58,5.45-.46,3.63-.94,7.26-1.44,10.89-.06.46-.49.78-.95.72-.38-.05-.67-.35-.72-.72-.5-3.63-.98-7.26-1.44-10.89-.23-1.82-.44-3.63-.58-5.45-.17-1.82-.36-3.63.03-5.45.33-1.56,1.87-2.56,3.42-2.22,1.15.24,1.99,1.14,2.22,2.22Z"/><path class="s" d="M53.91,97.91c0,3.36,2.73,6.09,6.09,6.09s6.09-2.73,6.09-6.09-2.73-6.09-6.09-6.09-6.09,2.73-6.09,6.09Z"/></g></g><g id="d"><g id="e"><line class="s" x1="48.39" y1="71.62" x2="28.89" y2="91.11"/><path class="s" d="M50.38,73.61c-1.01,1.56-2.43,2.71-3.83,3.87-1.39,1.18-2.82,2.31-4.26,3.44-2.89,2.24-5.8,4.47-8.72,6.69-.37.28-.9.21-1.18-.16-.23-.31-.22-.72,0-1.02,2.22-2.92,4.44-5.83,6.69-8.72,1.12-1.44,2.26-2.88,3.44-4.26,1.17-1.4,2.32-2.82,3.87-3.83,1.34-.87,3.13-.49,3.99.85.64.99.6,2.22,0,3.14Z"/><path class="s" d="M28.89,82.5c-2.38,2.38-2.38,6.24,0,8.61,2.38,2.38,6.24,2.38,8.61,0,2.38-2.38,2.38-6.24,0-8.61s-6.24-2.38-8.61,0Z"/></g></g><g id="f"><g id="g"><path class="s" d="M43.57,62.82c-1.82.39-3.63.2-5.45.03-1.82-.15-3.63-.36-5.45-.58-3.63-.46-7.26-.94-10.89-1.44-.46-.06-.78-.49-.72-.95.05-.38.35-.67.72-.72,3.63-.5,7.26-.98,10.89-1.44,1.82-.23,3.63-.44,5.45-.58,1.82-.17,3.63-.36,5.45.03,1.56.33,2.56,1.87,2.22,3.42-.24,1.15-1.14,1.99-2.22,2.22Z"/><path class="s" d="M22.09,53.91c-3.36,0-6.09,2.73-6.09,6.09s2.73,6.09,6.09,6.09,6.09-2.73,6.09-6.09-2.73-6.09-6.09-6.09Z"/></g></g><g id="h"><g id="i"><line class="s" x1="48.38" y1="48.39" x2="28.89" y2="28.89"/><path class="s" d="M46.39,50.38c-1.56-1.01-2.71-2.43-3.87-3.83-1.18-1.39-2.31-2.82-3.44-4.26-2.24-2.89-4.47-5.8-6.69-8.72-.28-.37-.21-.9.16-1.18.31-.23.72-.22,1.02,0,2.92,2.22,5.83,4.44,8.72,6.69,1.44,1.12,2.88,2.26,4.26,3.44,1.4,1.17,2.82,2.32,3.83,3.87.87,1.34.49,3.13-.85,3.99-.99.64-2.22.6-3.14,0Z"/><path class="s" d="M37.5,28.89c-2.38-2.38-6.24-2.38-8.61,0-2.38,2.38-2.38,6.24,0,8.61,2.38,2.38,6.24,2.38,8.61,0s2.38-6.24,0-8.61Z"/></g></g><g id="j"><g id="k"><path class="s" d="M57.18,43.57c-.39-1.82-.2-3.63-.03-5.45.15-1.82.36-3.63.58-5.45.46-3.63.94-7.26,1.44-10.89.06-.46.49-.78.95-.72.38.05.67.35.72.72.5,3.63.98,7.26,1.44,10.89.23,1.82.44,3.63.58,5.45.17,1.82.36,3.63-.03,5.45-.33,1.56-1.87,2.56-3.42,2.22-1.15-.24-1.99-1.14-2.22-2.22Z"/><path class="s" d="M66.09,22.09c0-3.36-2.73-6.09-6.09-6.09s-6.09,2.73-6.09,6.09,2.73,6.09,6.09,6.09,6.09-2.73,6.09-6.09Z"/></g></g><g id="l"><g id="m"><line class="s" x1="71.61" y1="48.38" x2="91.11" y2="28.89"/><path class="s" d="M69.62,46.39c1.01-1.56,2.43-2.71,3.83-3.87,1.39-1.18,2.82-2.31,4.26-3.44,2.89-2.24,5.8-4.47,8.72-6.69.37-.28.9-.21,1.18.16.23.31.22.72,0,1.02-2.22,2.92-4.44,5.83-6.69,8.72-1.12,1.44-2.26,2.88-3.44,4.26-1.17,1.4-2.32,2.82-3.87,3.83-1.34.87-3.13.49-3.99-.85-.64-.99-.6-2.22,0-3.14Z"/><path class="s" d="M91.11,37.5c2.38-2.38,2.38-6.24,0-8.61-2.38-2.38-6.24-2.38-8.61,0-2.38,2.38-2.38,6.24,0,8.61s6.24,2.38,8.61,0Z"/></g></g><g id="n"><g id="o"><path class="s" d="M76.43,57.18c1.82-.39,3.63-.2,5.45-.03,1.82.15,3.63.36,5.45.58,3.63.46,7.26.94,10.89,1.44.46.06.78.49.72.95-.05.38-.35.67-.72.72-3.63.5-7.26.98-10.89,1.44-1.82.23-3.63.44-5.45.58-1.82.17-3.63.36-5.45-.03-1.56-.33-2.56-1.87-2.22-3.42.24-1.15,1.14-1.99,2.22-2.22Z"/><path class="s" d="M97.91,66.09c3.36,0,6.09-2.73,6.09-6.09s-2.73-6.09-6.09-6.09-6.09,2.73-6.09,6.09,2.73,6.09,6.09,6.09Z"/></g></g><g id="p"><g id="q"><line class="s" x1="71.62" y1="71.61" x2="91.11" y2="91.11"/><path class="s" d="M73.61,69.62c1.56,1.01,2.71,2.43,3.87,3.83,1.18,1.39,2.31,2.82,3.44,4.26,2.24,2.89,4.47,5.8,6.69,8.72.28.37.21.9-.16,1.18-.31.23-.72.22-1.02,0-2.92-2.22-5.83-4.44-8.72-6.69-1.44-1.12-2.88-2.26-4.26-3.44-1.4-1.17-2.82-2.32-3.83-3.87-.87-1.34-.49-3.13.85-3.99.99-.64,2.22-.6,3.14,0Z"/><path class="s" d="M82.5,91.11c2.38,2.38,6.24,2.38,8.61,0,2.38-2.38,2.38-6.24,0-8.61-2.38-2.38-6.24-2.38-8.61,0s-2.38,6.24,0,8.61Z"/></g></g></g><g id="r"><circle class="s" cx="60" cy="60" r="10"/></g></svg>