<?xml version="1.0" encoding="UTF-8" standalone="no"?>
<svg
   viewBox="0 0 120 120"
   version="1.1"
   id="svg16"
   sodipodi:docname="icon movement g.svg"
   inkscape:version="1.3.2 (091e20e, 2023-11-25)"
   xmlns:inkscape="http://www.inkscape.org/namespaces/inkscape"
   xmlns:sodipodi="http://sodipodi.sourceforge.net/DTD/sodipodi-0.dtd"
   xmlns="http://www.w3.org/2000/svg"
   xmlns:svg="http://www.w3.org/2000/svg">
  <sodipodi:namedview
     id="namedview16"
     pagecolor="#ffffff"
     bordercolor="#000000"
     borderopacity="0.25"
     inkscape:showpageshadow="2"
     inkscape:pageopacity="0.0"
     inkscape:pagecheckerboard="0"
     inkscape:deskcolor="#d1d1d1"
     inkscape:zoom="1.9666667"
     inkscape:cx="60"
     inkscape:cy="60"
     inkscape:window-width="1456"
     inkscape:window-height="751"
     inkscape:window-x="0"
     inkscape:window-y="38"
     inkscape:window-maximized="0"
     inkscape:current-layer="svg16" />
  <defs
     id="defs1">
    <style
       id="style1">.s{stroke-width:0px;}</style>
  </defs>
  <g
     id="a"
     style="display:inline;fill:#00c3ff;fill-opacity:1">
    <g
       id="b"
       style="fill:#00c3ff;fill-opacity:1">
      <g
         id="c"
         style="fill:#00c3ff;fill-opacity:1">
        <path
           class="s"
           d="m 62.82,76.43 c 0.39,1.82 0.2,3.63 0.03,5.45 -0.15,1.82 -0.36,3.63 -0.58,5.45 -0.46,3.63 -0.94,7.26 -1.44,10.89 -0.06,0.46 -0.49,0.78 -0.95,0.72 -0.38,-0.05 -0.67,-0.35 -0.72,-0.72 -0.5,-3.63 -0.98,-7.26 -1.44,-10.89 -0.23,-1.82 -0.44,-3.63 -0.58,-5.45 -0.17,-1.82 -0.36,-3.63 0.03,-5.45 0.33,-1.56 1.87,-2.56 3.42,-2.22 1.15,0.24 1.99,1.14 2.22,2.22 z"
           id="path1"
           style="fill:#00c3ff;fill-opacity:1" />
        <path
           class="s"
           d="m 53.91,97.91 c 0,3.36 2.73,6.09 6.09,6.09 3.36,0 6.09,-2.73 6.09,-6.09 0,-3.36 -2.73,-6.09 -6.09,-6.09 -3.36,0 -6.09,2.73 -6.09,6.09 z"
           id="path2"
           style="fill:#00c3ff;fill-opacity:1" />
      </g>
    </g>
    <g
       id="d"
       style="fill:#00c3ff;fill-opacity:1">
      <g
         id="e"
         style="fill:#00c3ff;fill-opacity:1">
        <line
           class="s"
           x1="48.389999"
           y1="71.620003"
           x2="28.889999"
           y2="91.110001"
           id="line2"
           style="fill:#00c3ff;fill-opacity:1" />
        <path
           class="s"
           d="m 50.38,73.61 c -1.01,1.56 -2.43,2.71 -3.83,3.87 -1.39,1.18 -2.82,2.31 -4.26,3.44 -2.89,2.24 -5.8,4.47 -8.72,6.69 -0.37,0.28 -0.9,0.21 -1.18,-0.16 -0.23,-0.31 -0.22,-0.72 0,-1.02 2.22,-2.92 4.44,-5.83 6.69,-8.72 1.12,-1.44 2.26,-2.88 3.44,-4.26 1.17,-1.4 2.32,-2.82 3.87,-3.83 1.34,-0.87 3.13,-0.49 3.99,0.85 0.64,0.99 0.6,2.22 0,3.14 z"
           id="path3"
           style="fill:#00c3ff;fill-opacity:1" />
        <path
           class="s"
           d="m 28.89,82.5 c -2.38,2.38 -2.38,6.24 0,8.61 2.38,2.38 6.24,2.38 8.61,0 2.38,-2.38 2.38,-6.24 0,-8.61 -2.38,-2.37 -6.24,-2.38 -8.61,0 z"
           id="path4"
           style="fill:#00c3ff;fill-opacity:1" />
      </g>
    </g>
    <g
       id="f"
       style="fill:#00c3ff;fill-opacity:1">
      <g
         id="g"
         style="fill:#00c3ff;fill-opacity:1">
        <path
           class="s"
           d="m 43.57,62.82 c -1.82,0.39 -3.63,0.2 -5.45,0.03 C 36.3,62.7 34.49,62.49 32.67,62.27 29.04,61.81 25.41,61.33 21.78,60.83 21.32,60.77 21,60.34 21.06,59.88 c 0.05,-0.38 0.35,-0.67 0.72,-0.72 3.63,-0.5 7.26,-0.98 10.89,-1.44 1.82,-0.23 3.63,-0.44 5.45,-0.58 1.82,-0.17 3.63,-0.36 5.45,0.03 1.56,0.33 2.56,1.87 2.22,3.42 -0.24,1.15 -1.14,1.99 -2.22,2.22 z"
           id="path5"
           style="fill:#00c3ff;fill-opacity:1" />
        <path
           class="s"
           d="M 22.09,53.91 C 18.73,53.91 16,56.64 16,60 c 0,3.36 2.73,6.09 6.09,6.09 3.36,0 6.09,-2.73 6.09,-6.09 0,-3.36 -2.73,-6.09 -6.09,-6.09 z"
           id="path6"
           style="fill:#00c3ff;fill-opacity:1" />
      </g>
    </g>
    <g
       id="h"
       style="fill:#00c3ff;fill-opacity:1">
      <g
         id="i"
         style="fill:#00c3ff;fill-opacity:1">
        <line
           class="s"
           x1="48.380001"
           y1="48.389999"
           x2="28.889999"
           y2="28.889999"
           id="line6"
           style="fill:#00c3ff;fill-opacity:1" />
        <path
           class="s"
           d="m 46.39,50.38 c -1.56,-1.01 -2.71,-2.43 -3.87,-3.83 -1.18,-1.39 -2.31,-2.82 -3.44,-4.26 -2.24,-2.89 -4.47,-5.8 -6.69,-8.72 -0.28,-0.37 -0.21,-0.9 0.16,-1.18 0.31,-0.23 0.72,-0.22 1.02,0 2.92,2.22 5.83,4.44 8.72,6.69 1.44,1.12 2.88,2.26 4.26,3.44 1.4,1.17 2.82,2.32 3.83,3.87 0.87,1.34 0.49,3.13 -0.85,3.99 -0.99,0.64 -2.22,0.6 -3.14,0 z"
           id="path7"
           style="fill:#00c3ff;fill-opacity:1" />
        <path
           class="s"
           d="m 37.5,28.89 c -2.38,-2.38 -6.24,-2.38 -8.61,0 -2.38,2.38 -2.38,6.24 0,8.61 2.38,2.38 6.24,2.38 8.61,0 2.37,-2.38 2.38,-6.24 0,-8.61 z"
           id="path8"
           style="fill:#00c3ff;fill-opacity:1" />
      </g>
    </g>
    <g
       id="j"
       style="fill:#00c3ff;fill-opacity:1">
      <g
         id="k"
         style="fill:#00c3ff;fill-opacity:1">
        <path
           class="s"
           d="m 57.18,43.57 c -0.39,-1.82 -0.2,-3.63 -0.03,-5.45 0.15,-1.82 0.36,-3.63 0.58,-5.45 0.46,-3.63 0.94,-7.26 1.44,-10.89 0.06,-0.46 0.49,-0.78 0.95,-0.72 0.38,0.05 0.67,0.35 0.72,0.72 0.5,3.63 0.98,7.26 1.44,10.89 0.23,1.82 0.44,3.63 0.58,5.45 0.17,1.82 0.36,3.63 -0.03,5.45 -0.33,1.56 -1.87,2.56 -3.42,2.22 -1.15,-0.24 -1.99,-1.14 -2.22,-2.22 z"
           id="path9"
           style="fill:#00c3ff;fill-opacity:1" />
        <path
           class="s"
           d="M 66.09,22.09 C 66.09,18.73 63.36,16 60,16 c -3.36,0 -6.09,2.73 -6.09,6.09 0,3.36 2.73,6.09 6.09,6.09 3.36,0 6.09,-2.73 6.09,-6.09 z"
           id="path10"
           style="fill:#00c3ff;fill-opacity:1" />
      </g>
    </g>
    <g
       id="l"
       style="fill:#00c3ff;fill-opacity:1">
      <g
         id="m"
         style="fill:#00c3ff;fill-opacity:1">
        <line
           class="s"
           x1="71.610001"
           y1="48.380001"
           x2="91.110001"
           y2="28.889999"
           id="line10"
           style="fill:#00c3ff;fill-opacity:1" />
        <path
           class="s"
           d="m 69.62,46.39 c 1.01,-1.56 2.43,-2.71 3.83,-3.87 1.39,-1.18 2.82,-2.31 4.26,-3.44 2.89,-2.24 5.8,-4.47 8.72,-6.69 0.37,-0.28 0.9,-0.21 1.18,0.16 0.23,0.31 0.22,0.72 0,1.02 -2.22,2.92 -4.44,5.83 -6.69,8.72 -1.12,1.44 -2.26,2.88 -3.44,4.26 -1.17,1.4 -2.32,2.82 -3.87,3.83 -1.34,0.87 -3.13,0.49 -3.99,-0.85 -0.64,-0.99 -0.6,-2.22 0,-3.14 z"
           id="path11"
           style="fill:#00c3ff;fill-opacity:1" />
        <path
           class="s"
           d="m 91.11,37.5 c 2.38,-2.38 2.38,-6.24 0,-8.61 -2.38,-2.38 -6.24,-2.38 -8.61,0 -2.38,2.38 -2.38,6.24 0,8.61 2.38,2.37 6.24,2.38 8.61,0 z"
           id="path12"
           style="fill:#00c3ff;fill-opacity:1" />
      </g>
    </g>
    <g
       id="n"
       style="fill:#00c3ff;fill-opacity:1">
      <g
         id="o"
         style="fill:#00c3ff;fill-opacity:1">
        <path
           class="s"
           d="m 76.43,57.18 c 1.82,-0.39 3.63,-0.2 5.45,-0.03 1.82,0.15 3.63,0.36 5.45,0.58 3.63,0.46 7.26,0.94 10.89,1.44 0.46,0.06 0.78,0.49 0.72,0.95 -0.05,0.38 -0.35,0.67 -0.72,0.72 -3.63,0.5 -7.26,0.98 -10.89,1.44 -1.82,0.23 -3.63,0.44 -5.45,0.58 -1.82,0.17 -3.63,0.36 -5.45,-0.03 -1.56,-0.33 -2.56,-1.87 -2.22,-3.42 0.24,-1.15 1.14,-1.99 2.22,-2.22 z"
           id="path13"
           style="fill:#00c3ff;fill-opacity:1" />
        <path
           class="s"
           d="m 97.91,66.09 c 3.36,0 6.09,-2.73 6.09,-6.09 0,-3.36 -2.73,-6.09 -6.09,-6.09 -3.36,0 -6.09,2.73 -6.09,6.09 0,3.36 2.73,6.09 6.09,6.09 z"
           id="path14"
           style="fill:#00c3ff;fill-opacity:1" />
      </g>
    </g>
    <g
       id="p"
       style="fill:#00c3ff;fill-opacity:1">
      <g
         id="q"
         style="fill:#00c3ff;fill-opacity:1">
        <line
           class="s"
           x1="71.620003"
           y1="71.610001"
           x2="91.110001"
           y2="91.110001"
           id="line14"
           style="fill:#00c3ff;fill-opacity:1" />
        <path
           class="s"
           d="m 73.61,69.62 c 1.56,1.01 2.71,2.43 3.87,3.83 1.18,1.39 2.31,2.82 3.44,4.26 2.24,2.89 4.47,5.8 6.69,8.72 0.28,0.37 0.21,0.9 -0.16,1.18 -0.31,0.23 -0.72,0.22 -1.02,0 -2.92,-2.22 -5.83,-4.44 -8.72,-6.69 -1.44,-1.12 -2.88,-2.26 -4.26,-3.44 -1.4,-1.17 -2.82,-2.32 -3.83,-3.87 -0.87,-1.34 -0.49,-3.13 0.85,-3.99 0.99,-0.64 2.22,-0.6 3.14,0 z"
           id="path15"
           style="fill:#00c3ff;fill-opacity:1" />
        <path
           class="s"
           d="m 82.5,91.11 c 2.38,2.38 6.24,2.38 8.61,0 2.38,-2.38 2.38,-6.24 0,-8.61 -2.38,-2.38 -6.24,-2.38 -8.61,0 -2.37,2.38 -2.38,6.24 0,8.61 z"
           id="path16"
           style="fill:#00c3ff;fill-opacity:1" />
      </g>
    </g>
  </g>
  <g
     id="r"
     style="display:inline;fill:#000c10;fill-opacity:1">
    <circle
       class="s"
       cx="60"
       cy="60"
       r="10"
       id="circle16"
       style="fill:#000c10;fill-opacity:1" />
  </g>
  <g
     id="a-9"
     transform="translate(-0.4702579,-0.4702579)"
     style="display:inline">
    <g
       id="b-3"
       style="fill:#00c3ff;fill-opacity:1">
      <path
         class="k"
         d="m 69.44,74.94 c 1.23,2.56 2.21,5.22 3.13,7.9 l 2.72,8.07 c 0.91,2.69 1.82,5.38 2.69,8.09 0.88,2.7 1.78,5.39 2.63,8.11 0.17,0.54 -0.13,1.11 -0.67,1.28 -0.48,0.15 -0.98,-0.07 -1.21,-0.5 -1.32,-2.52 -2.58,-5.06 -3.87,-7.6 -1.29,-2.53 -2.56,-5.07 -3.81,-7.62 l -3.78,-7.63 c -1.25,-2.55 -2.44,-5.12 -3.37,-7.8 -0.55,-1.57 0.28,-3.28 1.84,-3.83 1.46,-0.51 3.05,0.17 3.7,1.53 z"
         id="path1-8"
         style="stroke-width:0px;fill:#00c3ff;fill-opacity:1" />
      <path
         class="k"
         d="m 73.72,109.63 c 1.33,3.22 5.03,4.75 8.25,3.42 3.22,-1.33 4.75,-5.03 3.42,-8.25 -1.33,-3.22 -5.03,-4.75 -8.25,-3.42 -3.22,1.33 -4.75,5.03 -3.42,8.25 z"
         id="path2-0"
         style="stroke-width:0px;fill:#00c3ff;fill-opacity:1" />
    </g>
    <g
       id="c-2"
       style="fill:#00c3ff;fill-opacity:1">
      <path
         class="k"
         d="m 56.11,77.24 c -0.94,2.68 -2.12,5.25 -3.37,7.8 l -3.78,7.63 c -1.26,2.55 -2.52,5.09 -3.81,7.62 -1.29,2.53 -2.55,5.08 -3.87,7.6 -0.26,0.5 -0.88,0.69 -1.38,0.43 -0.44,-0.23 -0.65,-0.75 -0.5,-1.21 0.85,-2.72 1.76,-5.41 2.63,-8.11 0.87,-2.7 1.78,-5.4 2.69,-8.09 l 2.72,-8.07 c 0.92,-2.69 1.9,-5.35 3.13,-7.9 0.72,-1.5 2.52,-2.12 4.01,-1.4 1.39,0.67 2.03,2.27 1.53,3.7 z"
         id="path3-4"
         style="stroke-width:0px;fill:#00c3ff;fill-opacity:1" />
      <path
         class="k"
         d="m 34.61,104.8 c -1.33,3.22 0.2,6.92 3.42,8.25 3.22,1.33 6.92,-0.2 8.25,-3.42 1.33,-3.22 -0.2,-6.92 -3.42,-8.25 -3.22,-1.33 -6.92,0.2 -8.25,3.42 z"
         id="path4-8"
         style="stroke-width:0px;fill:#00c3ff;fill-opacity:1" />
    </g>
    <g
       id="d-3"
       style="fill:#00c3ff;fill-opacity:1">
      <path
         class="k"
         d="m 45.06,69.44 c -2.56,1.23 -5.22,2.21 -7.9,3.13 l -8.07,2.72 c -2.69,0.91 -5.38,1.82 -8.09,2.69 -2.7,0.88 -5.39,1.78 -8.11,2.63 -0.54,0.17 -1.11,-0.13 -1.28,-0.67 -0.15,-0.48 0.07,-0.98 0.5,-1.21 2.52,-1.32 5.06,-2.58 7.6,-3.87 2.53,-1.29 5.07,-2.56 7.62,-3.81 l 7.63,-3.78 c 2.55,-1.25 5.12,-2.44 7.8,-3.37 1.57,-0.55 3.28,0.28 3.83,1.84 0.51,1.46 -0.17,3.05 -1.53,3.7 z"
         id="path5-9"
         style="stroke-width:0px;fill:#00c3ff;fill-opacity:1" />
      <path
         class="k"
         d="m 10.37,73.72 c -3.22,1.33 -4.75,5.03 -3.42,8.25 1.33,3.22 5.03,4.75 8.25,3.42 3.22,-1.33 4.75,-5.03 3.42,-8.25 -1.33,-3.22 -5.03,-4.75 -8.25,-3.42 z"
         id="path6-0"
         style="stroke-width:0px;fill:#00c3ff;fill-opacity:1" />
    </g>
    <g
       id="e-5"
       style="fill:#00c3ff;fill-opacity:1">
      <path
         class="k"
         d="m 42.76,56.11 c -2.68,-0.94 -5.25,-2.12 -7.8,-3.37 l -7.63,-3.78 c -2.55,-1.26 -5.09,-2.52 -7.62,-3.81 -2.53,-1.29 -5.08,-2.55 -7.6,-3.87 -0.5,-0.26 -0.69,-0.88 -0.43,-1.38 0.23,-0.44 0.75,-0.65 1.21,-0.5 2.72,0.85 5.41,1.76 8.11,2.63 2.7,0.87 5.4,1.78 8.09,2.69 l 8.07,2.72 c 2.69,0.92 5.35,1.9 7.9,3.13 1.5,0.72 2.12,2.52 1.4,4.01 -0.67,1.39 -2.27,2.03 -3.7,1.53 z"
         id="path7-2"
         style="stroke-width:0px;fill:#00c3ff;fill-opacity:1" />
      <path
         class="k"
         d="m 15.21,34.61 c -3.22,-1.33 -6.92,0.2 -8.25,3.42 -1.33,3.22 0.2,6.92 3.42,8.25 3.22,1.33 6.92,-0.2 8.25,-3.42 1.33,-3.22 -0.2,-6.92 -3.42,-8.25 z"
         id="path8-2"
         style="stroke-width:0px;fill:#00c3ff;fill-opacity:1" />
    </g>
    <g
       id="f-7"
       style="fill:#00c3ff;fill-opacity:1">
      <path
         class="k"
         d="M 50.56,45.06 C 49.33,42.5 48.35,39.84 47.43,37.16 L 44.71,29.09 C 43.8,26.4 42.89,23.71 42.02,21 c -0.88,-2.7 -1.78,-5.39 -2.63,-8.11 -0.17,-0.54 0.13,-1.11 0.67,-1.28 0.48,-0.15 0.98,0.07 1.21,0.5 1.32,2.52 2.58,5.06 3.87,7.6 1.29,2.53 2.56,5.07 3.81,7.62 l 3.78,7.63 c 1.25,2.55 2.44,5.12 3.37,7.8 0.55,1.57 -0.28,3.28 -1.84,3.83 -1.46,0.51 -3.05,-0.17 -3.7,-1.53 z"
         id="path9-3"
         style="stroke-width:0px;fill:#00c3ff;fill-opacity:1" />
      <path
         class="k"
         d="M 46.28,10.37 C 44.95,7.15 41.25,5.62 38.03,6.95 c -3.22,1.33 -4.75,5.03 -3.42,8.25 1.33,3.22 5.03,4.75 8.25,3.42 3.22,-1.33 4.75,-5.03 3.42,-8.25 z"
         id="path10-7"
         style="stroke-width:0px;fill:#00c3ff;fill-opacity:1" />
    </g>
    <g
       id="g-9"
       style="fill:#00c3ff;fill-opacity:1">
      <path
         class="k"
         d="m 63.89,42.76 c 0.94,-2.68 2.12,-5.25 3.37,-7.8 l 3.78,-7.63 c 1.26,-2.55 2.52,-5.09 3.81,-7.62 1.29,-2.53 2.55,-5.08 3.87,-7.6 0.26,-0.5 0.88,-0.69 1.38,-0.43 0.44,0.23 0.65,0.75 0.5,1.21 -0.85,2.72 -1.76,5.41 -2.63,8.11 -0.87,2.7 -1.78,5.4 -2.69,8.09 l -2.72,8.07 c -0.92,2.69 -1.9,5.35 -3.13,7.9 -0.72,1.5 -2.52,2.12 -4.01,1.4 -1.39,-0.67 -2.03,-2.27 -1.53,-3.7 z"
         id="path11-0"
         style="stroke-width:0px;fill:#00c3ff;fill-opacity:1" />
      <path
         class="k"
         d="m 85.39,15.21 c 1.33,-3.22 -0.2,-6.92 -3.42,-8.25 -3.22,-1.33 -6.92,0.2 -8.25,3.42 -1.33,3.22 0.2,6.92 3.42,8.25 3.22,1.33 6.92,-0.2 8.25,-3.42 z"
         id="path12-2"
         style="stroke-width:0px;fill:#00c3ff;fill-opacity:1" />
    </g>
    <g
       id="h-3"
       style="fill:#00c3ff;fill-opacity:1">
      <path
         class="k"
         d="m 74.94,50.56 c 2.56,-1.23 5.22,-2.21 7.9,-3.13 l 8.07,-2.72 c 2.69,-0.91 5.38,-1.82 8.09,-2.69 2.7,-0.88 5.39,-1.78 8.11,-2.63 0.54,-0.17 1.11,0.13 1.28,0.67 0.15,0.48 -0.07,0.98 -0.5,1.21 -2.52,1.32 -5.06,2.58 -7.6,3.87 -2.53,1.29 -5.07,2.56 -7.62,3.81 l -7.63,3.78 c -2.55,1.25 -5.12,2.44 -7.8,3.37 -1.57,0.55 -3.28,-0.28 -3.83,-1.84 -0.51,-1.46 0.17,-3.05 1.53,-3.7 z"
         id="path13-9"
         style="stroke-width:0px;fill:#00c3ff;fill-opacity:1" />
      <path
         class="k"
         d="m 109.63,46.28 c 3.22,-1.33 4.75,-5.03 3.42,-8.25 -1.33,-3.22 -5.03,-4.75 -8.25,-3.42 -3.22,1.33 -4.75,5.03 -3.42,8.25 1.33,3.22 5.03,4.75 8.25,3.42 z"
         id="path14-9"
         style="stroke-width:0px;fill:#00c3ff;fill-opacity:1" />
    </g>
    <g
       id="i-7"
       style="fill:#00c3ff;fill-opacity:1">
      <path
         class="k"
         d="m 77.24,63.89 c 2.68,0.94 5.25,2.12 7.8,3.37 l 7.63,3.78 c 2.55,1.26 5.09,2.52 7.62,3.81 2.53,1.29 5.08,2.55 7.6,3.87 0.5,0.26 0.69,0.88 0.43,1.38 -0.23,0.44 -0.75,0.65 -1.21,0.5 C 104.39,79.75 101.7,78.84 99,77.97 96.3,77.1 93.6,76.19 90.91,75.28 l -8.07,-2.72 c -2.69,-0.92 -5.35,-1.9 -7.9,-3.13 -1.5,-0.72 -2.12,-2.52 -1.4,-4.01 0.67,-1.39 2.27,-2.03 3.7,-1.53 z"
         id="path15-0"
         style="stroke-width:0px;fill:#00c3ff;fill-opacity:1" />
      <path
         class="k"
         d="m 104.8,85.39 c 3.22,1.33 6.92,-0.2 8.25,-3.42 1.33,-3.22 -0.2,-6.92 -3.42,-8.25 -3.22,-1.33 -6.92,0.2 -8.25,3.42 -1.33,3.22 0.2,6.92 3.42,8.25 z"
         id="path16-3"
         style="stroke-width:0px;fill:#00c3ff;fill-opacity:1" />
    </g>
  </g>
</svg>
