<?xml version="1.0" encoding="utf-8"?>
<!-- Generator: Adobe Illustrator 28.1.0, SVG Export Plug-In . SVG Version: 6.00 Build 0)  -->
<svg version="1.0" id="Layer_2" xmlns="http://www.w3.org/2000/svg" xmlns:xlink="http://www.w3.org/1999/xlink" x="0px" y="0px"
	 viewBox="0 0 120 120" enable-background="new 0 0 120 120" xml:space="preserve">
<circle cx="60" cy="60" r="10"/>
<g>
	<g>
		<g>
			<line x1="60" y1="77.434" x2="60" y2="117.011"/>
			<g>
				<path d="M62.824,77.434c0.351,2.425,0.231,4.85,0.064,7.275c-0.133,2.425-0.322,4.85-0.519,7.275l-1.331,14.55
					c-0.052,0.573-0.559,0.995-1.132,0.942c-0.508-0.047-0.898-0.451-0.942-0.942l-1.331-14.55c-0.197-2.425-0.387-4.85-0.519-7.275
					c-0.167-2.425-0.287-4.85,0.064-7.275c0.226-1.56,1.673-2.641,3.233-2.415C61.689,75.204,62.647,76.216,62.824,77.434z"/>
				<g>
					<path d="M60,105.35c3.075-3.075,9.155-4.54,13.374-4.661C67.71,104.905,62.77,110.384,60,117.011
						c-2.652-6.628-7.891-11.865-13.374-16.322C51.144,101.052,56.626,102.155,60,105.35z"/>
				</g>
			</g>
		</g>
	</g>
</g>
<g>
	<g>
		<g>
			<line x1="60" y1="42.566" x2="60" y2="2.989"/>
			<g>
				<path d="M57.176,42.566c-0.351-2.425-0.231-4.85-0.064-7.275c0.133-2.425,0.322-4.85,0.519-7.275l1.331-14.55
					c0.052-0.573,0.559-0.995,1.132-0.942c0.508,0.047,0.898,0.451,0.942,0.942l1.331,14.55c0.197,2.425,0.387,4.85,0.519,7.275
					c0.167,2.425,0.287,4.85-0.064,7.275c-0.226,1.56-1.673,2.641-3.233,2.415C58.311,44.796,57.353,43.784,57.176,42.566z"/>
				<g>
					<path d="M60,14.65c-3.075,3.075-9.155,4.54-13.374,4.661C52.29,15.095,57.23,9.616,60,2.989
						c2.652,6.628,7.891,11.865,13.374,16.322C68.856,18.948,63.374,17.845,60,14.65z"/>
				</g>
			</g>
		</g>
	</g>
</g>
<g>
	<g>
		<g>
			<line x1="77.434" y1="60" x2="117.011" y2="60"/>
			<g>
				<path d="M77.434,57.176c2.425-0.351,4.85-0.231,7.275-0.064c2.425,0.133,4.85,0.322,7.275,0.519l14.55,1.331
					c0.573,0.052,0.995,0.559,0.942,1.132c-0.047,0.508-0.451,0.898-0.942,0.942l-14.55,1.331c-2.425,0.197-4.85,0.387-7.275,0.519
					c-2.425,0.167-4.85,0.287-7.275-0.064c-1.56-0.226-2.641-1.673-2.415-3.233C75.204,58.311,76.216,57.353,77.434,57.176z"/>
				<g>
					<path d="M105.35,60c-3.075-3.075-4.54-9.155-4.661-13.374c4.215,5.664,9.694,10.603,16.322,13.374
						c-6.628,2.652-11.865,7.891-16.322,13.374C101.052,68.856,102.155,63.374,105.35,60z"/>
				</g>
			</g>
		</g>
	</g>
</g>
<g>
	<g>
		<g>
			<line x1="42.566" y1="60" x2="2.989" y2="60"/>
			<g>
				<path d="M42.566,62.824c-2.425,0.351-4.85,0.231-7.275,0.064c-2.425-0.133-4.85-0.322-7.275-0.519l-14.55-1.331
					c-0.573-0.052-0.995-0.559-0.942-1.132c0.047-0.508,0.451-0.898,0.942-0.942l14.55-1.331c2.425-0.197,4.85-0.387,7.275-0.519
					c2.425-0.167,4.85-0.287,7.275,0.064c1.56,0.226,2.641,1.673,2.415,3.233C44.796,61.689,43.784,62.647,42.566,62.824z"/>
				<g>
					<path d="M14.65,60c3.075,3.075,4.54,9.155,4.661,13.374C15.095,67.71,9.616,62.77,2.989,60
						c6.628-2.652,11.865-7.891,16.322-13.374C18.948,51.144,17.845,56.626,14.65,60z"/>
				</g>
			</g>
		</g>
	</g>
</g>
<g>
</g>
<g>
</g>
<g>
</g>
<g>
</g>
<g>
</g>
<g>
</g>
<g>
</g>
<g>
</g>
<g>
</g>
<g>
</g>
<g>
</g>
<g>
</g>
<g>
</g>
</svg>
