<?xml version="1.0" encoding="utf-8"?>
<!-- Generator: Adobe Illustrator 28.1.0, SVG Export Plug-In . SVG Version: 6.00 Build 0)  -->
<svg version="1.1" xmlns="http://www.w3.org/2000/svg" xmlns:xlink="http://www.w3.org/1999/xlink" x="0px" y="0px"
	 viewBox="0 0 150 150" style="enable-background:new 0 0 150 150;" xml:space="preserve">
<style type="text/css">
	.st0{opacity:0.33;}
	.st1{fill:#FFFFFF;}
</style>
<g id="_x23__xA0_Image_00000112629427445128364980000005635763269455044789_" class="st0">
	
		<image style="overflow:visible;" width="134" height="144" id="_x23__xA0_Image" xlink:href="E0B9AE0BD70E485B.png"  transform="matrix(1 0 0 1 9 3)">
	</image>
</g>
<g id="Layer_2">
	<g>
		<g>
			<path d="M74.7,140.9c-1.2,0-2.4-0.5-3.1-1.5c-0.8-0.9-1-2.2-0.8-3.4l6.1-27.6H61.4L55,137.7c-0.4,1.8-2,3.1-3.9,3.1H33.4
				c-1.2,0-2.4-0.5-3.1-1.5s-1-2.2-0.8-3.4l6.1-27.6H20c-1.2,0-2.3-0.5-3-1.4c-0.8-0.9-1.1-2.1-0.9-3.2l2.9-17.8
				c0.3-1.9,2-3.4,3.9-3.4h18.4l2.5-11.7H28.5c-1.2,0-2.3-0.5-3-1.4c-0.8-0.9-1.1-2.1-0.9-3.2l2.9-17.9c0.3-1.9,2-3.4,3.9-3.4h18
				l7.1-32.2c0.4-1.8,2-3.1,3.9-3.1h17.7c1.2,0,2.4,0.5,3.1,1.5c0.8,0.9,1,2.2,0.8,3.4L75.3,45h15.4l7.1-32.2c0.4-1.8,2-3.1,3.9-3.1
				h17.8c1.2,0,2.4,0.5,3.1,1.5c0.8,0.9,1,2.2,0.8,3.4L116.8,45h15.9c1.2,0,2.3,0.5,3,1.4c0.8,0.9,1.1,2.1,0.9,3.2l-2.9,17.9
				c-0.3,1.9-2,3.4-3.9,3.4h-18.7l-2.5,11.7h15.6c1.2,0,2.3,0.5,3,1.4c0.8,0.9,1.1,2.1,0.9,3.2l-2.9,17.8c-0.3,1.9-2,3.4-3.9,3.4
				h-18.4l-6.4,29.3c-0.4,1.8-2,3.1-3.9,3.1H74.7z M82.5,82.6l2.5-11.7H69.6l-2.5,11.7H82.5z"/>
			<path class="st1" d="M119.6,13.6L119.6,13.6 M119.6,13.6L111.8,49h20.9l-2.9,17.9h-21.9l-4.2,19.7h20.6l-2.9,17.8H99.7l-7.1,32.5
				H74.7l7.1-32.5H58.2l-7.1,32.5H33.4l7.1-32.5H20l2.9-17.8h21.6l4.2-19.7H28.5L31.4,49h21.2l7.8-35.4h17.7L70.3,49h23.6l7.8-35.4
				H119.6 M90,66.8H66.4l-4.2,19.7h23.6L90,66.8 M132.7,49L132.7,49 M124.2,86.6L124.2,86.6 M119.6,5.6L119.6,5.6h-17.9
				c-3.8,0-7,2.6-7.8,6.3L87.5,41h-7.2l5.7-25.6c0.5-2.4-0.1-4.8-1.6-6.7c-1.5-1.9-3.8-3-6.2-3H60.4c-3.8,0-7,2.6-7.8,6.3L46.2,41
				H31.4c-3.9,0-7.3,2.8-7.9,6.7l-2.9,17.9c-0.4,2.3,0.3,4.7,1.8,6.5c1.5,1.8,3.7,2.8,6.1,2.8h10.3L38,78.6H22.9
				c-3.9,0-7.3,2.8-7.9,6.7l-2.9,17.8c-0.4,2.3,0.3,4.7,1.8,6.5c1.5,1.8,3.7,2.8,6.1,2.8h10.6l-5,22.8c-0.5,2.4,0.1,4.8,1.6,6.7
				c1.5,1.9,3.8,3,6.2,3h17.7c3.8,0,7-2.6,7.8-6.3l5.8-26.2h7.2l-5,22.8c-0.5,2.4,0.1,4.8,1.6,6.7c1.5,1.9,3.8,3,6.2,3h17.9
				c3.8,0,7-2.6,7.8-6.3l5.8-26.2h15.2c3.9,0,7.3-2.8,7.9-6.7l2.9-17.6c0.1-0.5,0.1-1,0.1-1.5c0-4.4-3.6-8-8-8h0h-10.7l0.8-3.7h15.5
				c3.9,0,7.3-2.8,7.9-6.7l2.8-17.6c0.1-0.5,0.1-1,0.1-1.5c0-4.4-3.6-8-8-8h0h-10.9l5.6-25.4c0.2-0.6,0.2-1.3,0.2-2
				C127.6,9.2,124,5.6,119.6,5.6L119.6,5.6z M119.6,21.6L119.6,21.6L119.6,21.6L119.6,21.6z M72.8,74.8h7.3l-0.8,3.7H72L72.8,74.8
				L72.8,74.8z"/>
		</g>
	</g>
</g>
</svg>
