<?xml version="1.0" encoding="UTF-8"?><svg xmlns="http://www.w3.org/2000/svg" viewBox="0 0 120 120"><defs><style>.k{stroke-width:0px;}</style></defs><g id="a"><g id="b"><path class="k" d="M69.44,74.94c1.23,2.56,2.21,5.22,3.13,7.9l2.72,8.07c.91,2.69,1.82,5.38,2.69,8.09.88,2.7,1.78,5.39,2.63,8.11.17.54-.13,1.11-.67,1.28-.48.15-.98-.07-1.21-.5-1.32-2.52-2.58-5.06-3.87-7.6-1.29-2.53-2.56-5.07-3.81-7.62l-3.78-7.63c-1.25-2.55-2.44-5.12-3.37-7.8-.55-1.57.28-3.28,1.84-3.83,1.46-.51,3.05.17,3.7,1.53Z"/><path class="k" d="M73.72,109.63c1.33,3.22,5.03,4.75,8.25,3.42,3.22-1.33,4.75-5.03,3.42-8.25-1.33-3.22-5.03-4.75-8.25-3.42s-4.75,5.03-3.42,8.25Z"/></g><g id="c"><path class="k" d="M56.11,77.24c-.94,2.68-2.12,5.25-3.37,7.8l-3.78,7.63c-1.26,2.55-2.52,5.09-3.81,7.62-1.29,2.53-2.55,5.08-3.87,7.6-.26.5-.88.69-1.38.43-.44-.23-.65-.75-.5-1.21.85-2.72,1.76-5.41,2.63-8.11.87-2.7,1.78-5.4,2.69-8.09l2.72-8.07c.92-2.69,1.9-5.35,3.13-7.9.72-1.5,2.52-2.12,4.01-1.4,1.39.67,2.03,2.27,1.53,3.7Z"/><path class="k" d="M34.61,104.8c-1.33,3.22.2,6.92,3.42,8.25,3.22,1.33,6.92-.2,8.25-3.42,1.33-3.22-.2-6.92-3.42-8.25-3.22-1.33-6.92.2-8.25,3.42Z"/></g><g id="d"><path class="k" d="M45.06,69.44c-2.56,1.23-5.22,2.21-7.9,3.13l-8.07,2.72c-2.69.91-5.38,1.82-8.09,2.69-2.7.88-5.39,1.78-8.11,2.63-.54.17-1.11-.13-1.28-.67-.15-.48.07-.98.5-1.21,2.52-1.32,5.06-2.58,7.6-3.87,2.53-1.29,5.07-2.56,7.62-3.81l7.63-3.78c2.55-1.25,5.12-2.44,7.8-3.37,1.57-.55,3.28.28,3.83,1.84.51,1.46-.17,3.05-1.53,3.7Z"/><path class="k" d="M10.37,73.72c-3.22,1.33-4.75,5.03-3.42,8.25s5.03,4.75,8.25,3.42c3.22-1.33,4.75-5.03,3.42-8.25s-5.03-4.75-8.25-3.42Z"/></g><g id="e"><path class="k" d="M42.76,56.11c-2.68-.94-5.25-2.12-7.8-3.37l-7.63-3.78c-2.55-1.26-5.09-2.52-7.62-3.81-2.53-1.29-5.08-2.55-7.6-3.87-.5-.26-.69-.88-.43-1.38.23-.44.75-.65,1.21-.5,2.72.85,5.41,1.76,8.11,2.63,2.7.87,5.4,1.78,8.09,2.69l8.07,2.72c2.69.92,5.35,1.9,7.9,3.13,1.5.72,2.12,2.52,1.4,4.01-.67,1.39-2.27,2.03-3.7,1.53Z"/><path class="k" d="M15.21,34.61c-3.22-1.33-6.92.2-8.25,3.42s.2,6.92,3.42,8.25c3.22,1.33,6.92-.2,8.25-3.42,1.33-3.22-.2-6.92-3.42-8.25Z"/></g><g id="f"><path class="k" d="M50.56,45.06c-1.23-2.56-2.21-5.22-3.13-7.9l-2.72-8.07c-.91-2.69-1.82-5.38-2.69-8.09-.88-2.7-1.78-5.39-2.63-8.11-.17-.54.13-1.11.67-1.28.48-.15.98.07,1.21.5,1.32,2.52,2.58,5.06,3.87,7.6,1.29,2.53,2.56,5.07,3.81,7.62l3.78,7.63c1.25,2.55,2.44,5.12,3.37,7.8.55,1.57-.28,3.28-1.84,3.83-1.46.51-3.05-.17-3.7-1.53Z"/><path class="k" d="M46.28,10.37c-1.33-3.22-5.03-4.75-8.25-3.42s-4.75,5.03-3.42,8.25c1.33,3.22,5.03,4.75,8.25,3.42,3.22-1.33,4.75-5.03,3.42-8.25Z"/></g><g id="g"><path class="k" d="M63.89,42.76c.94-2.68,2.12-5.25,3.37-7.8l3.78-7.63c1.26-2.55,2.52-5.09,3.81-7.62,1.29-2.53,2.55-5.08,3.87-7.6.26-.5.88-.69,1.38-.43.44.23.65.75.5,1.21-.85,2.72-1.76,5.41-2.63,8.11-.87,2.7-1.78,5.4-2.69,8.09l-2.72,8.07c-.92,2.69-1.9,5.35-3.13,7.9-.72,1.5-2.52,2.12-4.01,1.4-1.39-.67-2.03-2.27-1.53-3.7Z"/><path class="k" d="M85.39,15.21c1.33-3.22-.2-6.92-3.42-8.25s-6.92.2-8.25,3.42c-1.33,3.22.2,6.92,3.42,8.25,3.22,1.33,6.92-.2,8.25-3.42Z"/></g><g id="h"><path class="k" d="M74.94,50.56c2.56-1.23,5.22-2.21,7.9-3.13l8.07-2.72c2.69-.91,5.38-1.82,8.09-2.69,2.7-.88,5.39-1.78,8.11-2.63.54-.17,1.11.13,1.28.67.15.48-.07.98-.5,1.21-2.52,1.32-5.06,2.58-7.6,3.87-2.53,1.29-5.07,2.56-7.62,3.81l-7.63,3.78c-2.55,1.25-5.12,2.44-7.8,3.37-1.57.55-3.28-.28-3.83-1.84-.51-1.46.17-3.05,1.53-3.7Z"/><path class="k" d="M109.63,46.28c3.22-1.33,4.75-5.03,3.42-8.25-1.33-3.22-5.03-4.75-8.25-3.42-3.22,1.33-4.75,5.03-3.42,8.25,1.33,3.22,5.03,4.75,8.25,3.42Z"/></g><g id="i"><path class="k" d="M77.24,63.89c2.68.94,5.25,2.12,7.8,3.37l7.63,3.78c2.55,1.26,5.09,2.52,7.62,3.81,2.53,1.29,5.08,2.55,7.6,3.87.5.26.69.88.43,1.38-.23.44-.75.65-1.21.5-2.72-.85-5.41-1.76-8.11-2.63-2.7-.87-5.4-1.78-8.09-2.69l-8.07-2.72c-2.69-.92-5.35-1.9-7.9-3.13-1.5-.72-2.12-2.52-1.4-4.01.67-1.39,2.27-2.03,3.7-1.53Z"/><path class="k" d="M104.8,85.39c3.22,1.33,6.92-.2,8.25-3.42,1.33-3.22-.2-6.92-3.42-8.25-3.22-1.33-6.92.2-8.25,3.42-1.33,3.22.2,6.92,3.42,8.25Z"/></g></g><g id="j"><circle class="k" cx="60" cy="60" r="10"/></g></svg>