<?xml version="1.0" encoding="utf-8"?>
<!-- Generator: Adobe Illustrator 28.1.0, SVG Export Plug-In . SVG Version: 6.00 Build 0)  -->
<svg version="1.1"
	 id="Layer_1" text-rendering="geometricPrecision" image-rendering="optimizeQuality" shape-rendering="geometricPrecision"
	 xmlns="http://www.w3.org/2000/svg" xmlns:xlink="http://www.w3.org/1999/xlink" x="0px" y="0px" viewBox="0 0 141.7 141.7"
	 style="enable-background:new 0 0 141.7 141.7;" xml:space="preserve">
<style type="text/css">
	.st0{fill-rule:evenodd;clip-rule:evenodd;fill:#1F1A17;}
</style>
<path class="st0" d="M74.2,26.6c7.4,0.5,14.2,2.4,20.5,5.7c6.3,3.3,11.6,7.6,16,12.8c3.1,3.6,6,8.1,8.7,13.2
	c2.8,5.2,5,10.7,6.6,16.4c1.9,6.9,3.1,14,3.6,21.1c0.5,7.4,0.7,14.2,0.7,20.5v15.3H43.8c-0.4,0-0.6-1.2-0.6-3.4
	c0-2.3,0.2-4.2,0.5-5.6c0.2-1.1,0.6-2.7,1.3-4.8c0.7-2.1,1.9-4.6,3.5-7.5c0.7-1.5,2.5-3.7,5.3-6.6c2.8-2.9,6-6.2,9.7-10
	c2.1-2.2,3.7-4.9,4.9-8.2c1.2-3.3,1.7-6.2,1.5-8.9c-1.7,1.4-3.6,2.6-5.7,3.5c-9.9,3.6-17.1,8.7-21.6,15.5c-0.3,0.4-1.4,2.3-3.2,5.7
	c-0.9,1.8-1.8,3-2.4,3.6c-0.9,0.9-2.2,1.4-3.9,1.5c-2.6,0.1-4.7-1.1-6.1-3.8c-2,0.6-3.7,0.8-5.3,0.7c-2.6-1-4.5-2-5.7-3.2
	c-2.4-2.4-3.9-4.8-4.7-7.2c-0.7-2.5-1.1-5.1-1.1-7.7c0-3.9,2.4-9.1,7.3-15.6c5.7-7.4,8.8-13.1,9.1-17c0-1.7,0.2-3.6,0.5-5.7
	c0.3-1.5,0.9-2.9,1.8-4.2c0.6-0.9,1-1.6,1.2-1.9c0.2-0.4,0.6-0.9,1.2-1.6c0.4-0.6,0.8-1,1.1-1.3c0.3-0.3,0.6-0.7,1.1-1.2
	c0.5-0.6,1.2-1.3,2-2.1c-2.5-6.8-3.5-14-3-21.1C42,16.7,49.8,22,56.1,29.1c1.6-5.3,4.6-9.6,9.1-12.9C69,18.9,72,22.3,74.2,26.6z"/>
</svg>
