<?xml version="1.0" encoding="utf-8"?>
<!-- Generator: Adobe Illustrator 28.1.0, SVG Export Plug-In . SVG Version: 6.00 Build 0)  -->
<svg version="1.1"
	 id="Layer_1" text-rendering="geometricPrecision" image-rendering="optimizeQuality" shape-rendering="geometricPrecision"
	 xmlns="http://www.w3.org/2000/svg" xmlns:xlink="http://www.w3.org/1999/xlink" x="0px" y="0px" viewBox="0 0 141.7 141.7"
	 style="enable-background:new 0 0 141.7 141.7;" xml:space="preserve">
<style type="text/css">
	.st0{fill-rule:evenodd;clip-rule:evenodd;fill:#1F1A17;}
</style>
<path class="st0" d="M70.9,119.5c-0.6,2.7-1.5,4.5-2.4,5.5c-0.9,1-2.2,2.1-3.7,3.2c-1.7,1.2-3.7,2.2-6,3s-4.8,1-7.7,0.6l-19.8-2.7
	c-0.7-0.1-1.4-0.1-2.2,0c-0.6,0.1-1.2,0.1-1.8,0.1c-1,0-2.2,0.2-3.7,0.7c-1.5,0.4-2.7,1.1-3.6,1.9l-6.8-11.2c0.8-0.9,1.6-1.6,2.2-2
	c0.7-0.4,1.4-0.8,2.3-1.2c2.7-1.3,5.7-2.1,8.7-2.3c1.3-0.1,2.6-0.1,3.9-0.1c1.3,0,2.6,0,4-0.1c2.5,0.4,5.1,0.8,7.6,1.2
	c2.6,0.4,5.1,0.7,7.7,1.1c2.8,0,4.7-0.3,5.7-0.8c0.5-0.3,1.3-0.8,2.5-1.6c1.1-0.7,2.3-1.8,3.4-3.3c-2.5-0.3-5-0.7-7.6-1.4
	c-2.3-0.6-4.6-1.3-6.8-2.1l7.3-18.1c-3.7-2.1-6.2-3.8-7.7-5.1C45,83.5,43.9,82,43,80.3c-1.2-2.2-2-4.2-2.4-6.3
	c-0.3-1.8-0.5-3.6-0.5-5.4c0-2.8,0.7-5.9,2-9.3c1.3-3.4,3.7-6.4,7.3-9.1c2.9-2.2,5.8-4.6,8.7-7c3-2.6,5.8-5.4,8.4-8.4
	c-3.5-1.8-5.2-4.6-5.2-8.5c0-2.6,0.9-4.9,2.8-6.8c1.8-1.9,4.1-2.8,6.8-2.8c2.6,0,4.9,0.9,6.7,2.8c1.9,1.9,2.8,4.1,2.8,6.8
	c0,3.8-1.7,6.7-5.2,8.5c2.5,3,5.3,5.8,8.3,8.4c2.8,2.4,5.8,4.7,8.8,7c3.5,2.7,5.9,5.7,7.2,9.1c1.3,3.4,2,6.5,2,9.3
	c0,1.6-0.1,3.4-0.5,5.4c-0.3,2-1.1,4.1-2.3,6.3c-0.9,1.7-2.1,3.2-3.6,4.5c-1.4,1.3-3.9,3-7.6,5.1l7.3,18.1c-2.1,0.7-4.4,1.5-7,2.1
	c-2.6,0.7-5.1,1.2-7.5,1.4c1.1,1.5,2.2,2.6,3.3,3.3c1.1,0.7,2,1.3,2.5,1.6c1,0.6,2.9,0.8,5.7,0.8c2.5-0.4,5.1-0.8,7.6-1.1
	c2.6-0.3,5.1-0.7,7.7-1.2c1.2,0.1,2.5,0.2,3.8,0.1c1.3,0,2.7,0,4,0.1c3,0.3,6,1.1,8.7,2.3c0.8,0.4,1.6,0.8,2.3,1.2
	c0.7,0.4,1.4,1,2.3,2l-6.9,11.2c-0.8-0.8-2-1.5-3.6-1.9c-1.5-0.5-2.7-0.7-3.7-0.7c-0.6,0-1.2,0-1.9-0.1c-0.7-0.1-1.4-0.1-2.1,0
	l-19.7,2.7c-2.8,0.4-5.4,0.2-7.8-0.5c-2.4-0.8-4.4-1.8-6-3.2c-1.5-1.3-2.8-2.4-3.7-3.3C72.2,124,71.5,122.2,70.9,119.5L70.9,119.5z"
	/>
</svg>
