<?xml version="1.0" encoding="utf-8"?>
<!-- Generator: Adobe Illustrator 28.1.0, SVG Export Plug-In . SVG Version: 6.00 Build 0)  -->
<svg version="1.1"
	 id="Layer_1" text-rendering="geometricPrecision" image-rendering="optimizeQuality" shape-rendering="geometricPrecision"
	 xmlns="http://www.w3.org/2000/svg" xmlns:xlink="http://www.w3.org/1999/xlink" x="0px" y="0px" viewBox="0 0 141.7 141.7"
	 style="enable-background:new 0 0 141.7 141.7;" xml:space="preserve">
<style type="text/css">
	.st0{fill-rule:evenodd;clip-rule:evenodd;fill:#1F1A17;}
</style>
<path class="st0" d="M73.2,34.1h-5v-9.2h-5.9c-1.6,0-2.4-0.8-2.4-2.3v-0.1c0-1.5,0.8-2.3,2.4-2.3h5.9v-6c0-1.7,0.8-2.5,2.5-2.5
	c1.6,0,2.5,0.8,2.5,2.5v6h6c1.5,0,2.3,0.8,2.3,2.3v0.1c0,1.6-0.8,2.3-2.3,2.3l-6,0.1L73.2,34.1z M31.3,107L29,93.8
	c0,0-0.1-0.1-0.2-0.3c-0.2-0.3-0.9-0.8-2-1.3c-1.1-0.6-2.4-1.5-3.8-2.8c-1.6-1.4-3.3-2.8-4.8-4.2c-1.2-1.1-2.2-2.2-3.1-3.5
	c-2.9-3.9-4.5-8.7-4.8-14.3c-0.5-5.4,1.7-10.8,6.5-16.1c4.9-5.3,11.5-7.8,19.8-7.5c3.1,0.2,6.7,0.9,10.9,2.3
	c1.4,0.6,2.8,1.1,4.2,1.6l4.2,1.7c0.7,0.4,1.4,0.8,2,1.1c-0.2-1-0.4-2-0.4-3c0-3.6,1.3-6.8,3.9-9.4c2.6-2.6,5.7-3.9,9.4-3.9
	c3.6,0,6.8,1.3,9.4,3.9c2.6,2.6,3.9,5.7,3.9,9.3c0,0.7-0.1,1.7-0.3,3c0.6-0.4,1.3-0.8,1.9-1.1c2.2-0.9,5-2,8.5-3.3
	c4-1.4,7.7-2.1,10.9-2.3c8.3-0.4,14.9,2.1,19.7,7.5c4.7,5.4,6.9,10.7,6.6,16.1c-0.4,5.6-2,10.3-4.8,14.3c-0.9,1.3-2,2.4-3.2,3.6
	c-1.5,1.4-3.1,2.8-4.7,4.2c-1.5,1.3-2.9,2.3-3.9,2.8c-1.1,0.5-1.7,1-1.9,1.3c0,0.1-0.1,0.2-0.1,0.2c0,0-0.1,0.1-0.1,0.1l-2.3,13.2
	l4.7,17.4c-2.4,2.1-7.6,3.8-15.7,5.2c-8.2,1.4-17.6,2-28.3,2c-10.9,0-20.4-0.7-28.7-2.1c-8.3-1.4-13.4-3.2-15.6-5.4L31.3,107z"/>
</svg>
