<?xml version="1.0" encoding="utf-8"?>
<!-- Generator: Adobe Illustrator 28.1.0, SVG Export Plug-In . SVG Version: 6.00 Build 0)  -->
<svg version="1.1"
	 id="Layer_1" text-rendering="geometricPrecision" image-rendering="optimizeQuality" shape-rendering="geometricPrecision"
	 xmlns="http://www.w3.org/2000/svg" xmlns:xlink="http://www.w3.org/1999/xlink" x="0px" y="0px" viewBox="0 0 141.7 141.7"
	 style="enable-background:new 0 0 141.7 141.7;" xml:space="preserve">
<style type="text/css">
	.st0{fill-rule:evenodd;clip-rule:evenodd;fill:#1F1A17;}
</style>
<path class="st0" d="M70.7,30.5c-2.7,0-4.9-0.9-6.8-2.8c-1.8-1.9-2.8-4.2-2.8-6.8c0-2.6,0.9-4.9,2.8-6.8c1.8-1.9,4.1-2.8,6.8-2.8
	c2.6,0,4.9,0.9,6.8,2.8c1.8,1.8,2.9,4.2,2.8,6.8c0,2.7-0.9,4.9-2.8,6.8C75.6,29.5,73.3,30.5,70.7,30.5L70.7,30.5z M114,124.6
	c-2.3,2-7.5,3.7-15.5,5.1c-8,1.3-17.3,2-27.7,2c-10.6,0-20-0.7-28.1-2.1c-8.1-1.4-13.2-3.2-15.3-5.3l4.4-16.9l-2-11l-6.2-10.8
	l-6-43.7l3.4-1.3L40.6,73L41,34.3l4.8-0.8l14.7,38.9l7.9-41.8h4.9l7.9,41.7l14.5-38.7l4.8,0.8l0.4,38.7l19.3-32.5l3.3,1.5l-5.8,43.5
	l-6.3,10.8l-2,11.2L114,124.6z M41.2,34c-2.7,0-5-0.9-6.8-2.8c-1.9-1.8-2.8-4.1-2.8-6.8c0-2.6,0.9-4.9,2.8-6.7
	c1.9-1.9,4.2-2.8,6.8-2.8c2.6,0,4.9,0.9,6.7,2.8c1.9,1.9,2.8,4.1,2.8,6.7c0,2.7-0.9,4.9-2.8,6.8C46.2,33,43.7,34,41.2,34z M100.2,34
	c-2.7,0-4.9-0.9-6.8-2.8c-1.8-1.8-2.8-4.1-2.8-6.8c0-2.6,0.9-4.9,2.8-6.7s4.1-2.8,6.8-2.8c2.7,0,5,0.9,6.8,2.8
	c1.9,1.9,2.8,4.1,2.8,6.7c0,2.7-0.9,4.9-2.8,6.8C105.2,33.1,102.9,34,100.2,34z M15.3,41.7c-2.7,0-4.9-0.9-6.8-2.8s-2.8-4.1-2.8-6.8
	c0-2.6,0.9-4.9,2.8-6.8c1.8-1.9,4.1-2.9,6.8-2.9c2.7,0,4.9,0.9,6.8,2.9c1.9,1.9,2.8,4.2,2.8,6.8c0,2.7-0.9,4.9-2.8,6.8
	C20.3,40.8,17.9,41.8,15.3,41.7z M126.3,41.7c-2.7,0-4.9-0.9-6.8-2.8c-1.9-1.8-2.8-4.1-2.8-6.8c0-2.6,0.9-4.9,2.8-6.8
	c1.9-1.9,4.2-2.9,6.8-2.9c2.6,0,4.9,0.9,6.8,2.9c1.9,1.9,2.8,4.2,2.8,6.8c0,2.7-0.9,4.9-2.8,6.8C131.2,40.8,128.8,41.8,126.3,41.7z"
	/>
</svg>
