<?xml version="1.0" encoding="UTF-8" standalone="no"?>
<svg
   viewBox="0 0 600 600"
   version="1.1"
   id="svg1"
   sodipodi:docname="undo icon.svg"
   inkscape:version="1.3.2 (091e20e, 2023-11-25)"
   xmlns:inkscape="http://www.inkscape.org/namespaces/inkscape"
   xmlns:sodipodi="http://sodipodi.sourceforge.net/DTD/sodipodi-0.dtd"
   xmlns="http://www.w3.org/2000/svg"
   xmlns:svg="http://www.w3.org/2000/svg">
  <defs
     id="defs1" />
  <sodipodi:namedview
     id="namedview1"
     pagecolor="#ffffff"
     bordercolor="#000000"
     borderopacity="0.25"
     inkscape:showpageshadow="2"
     inkscape:pageopacity="0.0"
     inkscape:pagecheckerboard="0"
     inkscape:deskcolor="#d1d1d1"
     inkscape:zoom="0.39333333"
     inkscape:cx="300"
     inkscape:cy="300"
     inkscape:window-width="1512"
     inkscape:window-height="831"
     inkscape:window-x="0"
     inkscape:window-y="38"
     inkscape:window-maximized="1"
     inkscape:current-layer="svg1" />
  <circle
     cx="-300"
     cy="300"
     r="300"
     fill="#cbc2bf"
     id="circle1"
     transform="scale(-1,1)" />
  <path
     d="m 88,353.5 h 216 l -79.1,-56.3 c 29.4,-23.3 63.4,-35 101.9,-35 19.3,0 32.5,3.7 39.5,11 7.1,7.4 10.7,20.7 10.7,39.9 0,53.2 -27.4,110 -82.2,170.4 l 62.3,63.1 c 72.5,-88.2 108.8,-167.1 108.8,-236.5 0,-41.6 -12.5,-74.7 -37.6,-99.3 -25.1,-24.6 -58.5,-36.9 -100,-36.9 -50.7,0 -106,19.3 -165.9,57.8 L 116,152.6 87.8,353.4"
     fill="#130c0e"
     id="path1" />
</svg>
